<svg xmlns="http://www.w3.org/2000/svg" viewBox="0 0 64 64">
  <defs>
    <linearGradient id="rRed" x1="0" y1="0" x2="1" y2="1">
      <stop offset="0%" stop-color="#ff4d5a" />
      <stop offset="100%" stop-color="#e30613" />
    </linearGradient>
  </defs>
  <rect width="64" height="64" rx="14" fill="#f8fafc" />
  <path d="M14 50V14h16c8 0 12 4 12 10 0 5-3 8-8 9l9 17H33l-8-15h-3v15H14Zm8-22h7c3 0 5-1 5-4s-2-4-5-4h-7v8Z" fill="url(#rRed)"/>
  <path d="M44 14h8L39 50h-8l13-36Z" fill="#1e40af"/>
  <path d="M44 50h-8l3-8h8l-3 8Z" fill="#1e40af"/>
</svg>
